<svg width="90" height="90" viewBox="0 0 90 90" fill="none" xmlns="http://www.w3.org/2000/svg">
<path fill-rule="evenodd" clip-rule="evenodd" d="M76.8874 13.079C68.427 4.6494 57.1753 0.00473797 45.1879 0C20.4882 0 0.385623 20.0049 0.375738 44.5942C0.372443 52.4543 2.43601 60.1269 6.35729 66.8898L0 90L23.7556 83.7985C30.3007 87.3512 37.67 89.2236 45.17 89.2267H45.1884C69.8856 89.2267 89.99 69.2193 90 44.6298C90.0048 32.7135 85.348 21.5086 76.8874 13.079ZM45.1884 81.6945H45.1732C38.4899 81.6919 31.9347 79.9051 26.2163 76.5278L24.8561 75.7244L10.7594 79.4046L14.5221 65.7262L13.6364 64.3239C9.90807 58.4221 7.93883 51.6007 7.94176 44.597C7.94993 24.1594 24.6585 7.53215 45.2032 7.53215C55.1514 7.53592 64.5031 11.3966 71.5352 18.403C78.5674 25.4094 82.4379 34.7225 82.4341 44.6269C82.4256 65.066 65.7172 81.6945 45.1884 81.6945ZM65.6185 53.9331C64.4987 53.3754 58.9938 50.6795 57.9674 50.3076C56.9411 49.9358 56.1948 49.7499 55.4482 50.8655C54.7018 51.981 52.556 54.491 51.9027 55.2346C51.2497 55.9784 50.5965 56.0714 49.4768 55.5136C48.3571 54.9558 44.7493 53.7792 40.4725 49.9828C37.144 47.0282 34.8967 43.3788 34.2436 42.2633C33.5904 41.1477 34.1741 40.5445 34.7346 39.9891C35.2383 39.4897 35.8543 38.6876 36.4142 38.0368C36.9739 37.3861 37.1605 36.9213 37.5337 36.1777C37.907 35.4339 37.7204 34.7831 37.4404 34.2254C37.1605 33.6676 34.9213 28.1828 33.9881 25.9517C33.0794 23.7788 32.1562 24.0728 31.4689 24.0387C30.8165 24.0064 30.0693 23.9995 29.323 23.9995C28.5765 23.9995 27.3635 24.2784 26.3371 25.3939C25.3108 26.5095 22.4184 29.2054 22.4184 34.6902C22.4184 40.1749 26.4304 45.4737 26.9903 46.2174C27.5501 46.9612 34.8857 58.2167 46.1178 63.0435C48.7892 64.1916 50.8749 64.8771 52.501 65.391C55.1834 66.2389 57.6243 66.1192 59.5536 65.8324C61.7048 65.5125 66.1781 63.1366 67.1113 60.5336C68.0444 57.9306 68.0444 55.6995 67.7645 55.2347C67.4846 54.7699 66.7382 54.491 65.6185 53.9331Z" fill="#707070"/>
</svg>
