<svg width="100" height="101" viewBox="0 0 100 101" fill="none" xmlns="http://www.w3.org/2000/svg">
<path d="M49.9998 65.7723C58.6293 65.7723 65.6248 58.761 65.6248 50.1122C65.6248 41.4634 58.6293 34.4521 49.9998 34.4521C41.3704 34.4521 34.3748 41.4634 34.3748 50.1122C34.3748 58.761 41.3704 65.7723 49.9998 65.7723Z" stroke="#707070" stroke-width="5" stroke-miterlimit="10"/>
<path d="M67.1876 14.094H32.8126C22.4573 14.094 14.0626 22.5075 14.0626 32.8861V67.3383C14.0626 77.7168 22.4573 86.1304 32.8126 86.1304H67.1876C77.5429 86.1304 85.9376 77.7168 85.9376 67.3383V32.8861C85.9376 22.5075 77.5429 14.094 67.1876 14.094Z" stroke="#707070" stroke-width="5" stroke-linecap="round" stroke-linejoin="round"/>
<path d="M70.3125 34.4522C72.9014 34.4522 75 32.3488 75 29.7542C75 27.1595 72.9014 25.0562 70.3125 25.0562C67.7237 25.0562 65.625 27.1595 65.625 29.7542C65.625 32.3488 67.7237 34.4522 70.3125 34.4522Z" fill="#707070"/>
</svg>
