<svg width="90" height="90" viewBox="0 0 90 90" fill="none" xmlns="http://www.w3.org/2000/svg">
<g clip-path="url(#clip0_143_6644)">
<path d="M42.1875 87.1875H11.25C6.58125 87.1875 2.8125 83.4187 2.8125 78.75V11.25C2.8125 6.58125 6.58125 2.8125 11.25 2.8125H78.75C83.4187 2.8125 87.1875 6.58125 87.1875 11.25V78.75C87.1875 83.4187 83.4187 87.1875 78.75 87.1875H59.0625V56.25H67.5L73.125 42.1875H59.0625V30.9375C59.0625 27.8437 61.5937 28.125 64.6875 28.125H70.3125V14.0625H59.0625C54.3938 14.0625 50.175 15.975 47.1375 19.0125C44.1 22.05 42.1875 26.2688 42.1875 30.9375V42.1875H30.9375V56.25H42.1875V87.1875Z" stroke="#707070" stroke-width="5" stroke-miterlimit="10" stroke-linecap="round" stroke-linejoin="round"/>
</g>
<defs>
<clipPath id="clip0_143_6644">
<rect width="90" height="90" fill="white"/>
</clipPath>
</defs>
</svg>
