<svg class="logo" width="80" height="90" viewBox="0 0 134 124" fill="none" xmlns="http://www.w3.org/2000/svg">
                    <path d="M3.82607 33.3987H17.5234C18.4569 33.3987 19.2936 32.8532 19.6303 32.0278L32.6899 0.0289626C32.6899 0.0289626 32.6848 0 32.6695 0H19.0895C19.0895 0 19.0742 0 19.0691 0.0096542L1.81611 30.208C0.994783 31.6465 2.09669 33.3939 3.82607 33.3939V33.3987Z" fill="url(#paint0_linear_152_2)"/>
                    <path d="M41.9643 33.3987H54.4219C56.0085 33.3987 57.3246 32.245 57.4471 30.7486L59.9519 0.0241355C59.9519 0.0241355 59.9417 0 59.9315 0H46.3464C46.3464 0 46.326 0.0048271 46.326 0.0144813L39.0156 29.8797C38.5769 31.6802 40.0206 33.3939 41.9694 33.3939L41.9643 33.3987Z" fill="url(#paint1_linear_152_2)"/>
                    <path d="M79.526 33.3987H90.9787C93.2284 33.3987 94.8966 31.4148 94.3864 29.3391L87.2087 0.0144813C87.2087 0.0144813 87.1985 0 87.1883 0H73.6033C73.6033 0 73.5777 0.0096542 73.5829 0.0241355L76.057 30.3624C76.1948 32.0761 77.7099 33.3987 79.526 33.3987V33.3987Z" fill="url(#paint2_linear_152_2)"/>
                    <path d="M117.44 33.3987H128.622C130.841 33.3987 132.254 31.1541 131.198 29.3101L114.466 0.0096542C114.466 0.0096542 114.455 0 114.445 0H100.865C100.865 0 100.84 0.0144813 100.845 0.0289626L113.384 30.7679C114.032 32.3512 115.644 33.3987 117.44 33.3987Z" fill="url(#paint3_linear_152_2)"/>
                    <path d="M9.87635 49.6564C15.0645 49.4922 19.1048 45.2975 19.1048 40.3835V39.3457C19.1048 38.052 18.1764 37.1783 17.0387 37.1783H2.06607C0.923356 37.1783 0 38.0568 0 39.1333V40.62C0 45.7175 4.45354 49.8253 9.88145 49.6564H9.87635Z" fill="url(#paint4_linear_152_2)"/>
                    <path d="M48.0299 49.6564C53.218 49.4922 57.2583 45.2975 57.2583 40.3835V39.7849C57.2583 38.2885 56.085 37.1783 54.6413 37.1783H40.7705C39.3268 37.1783 38.1535 38.2885 38.1535 39.6546V40.62C38.1535 45.7175 42.607 49.8253 48.035 49.6564H48.0299Z" fill="url(#paint5_linear_152_2)"/>
                    <path d="M78.8934 37.1783C77.4497 37.1783 76.2764 38.2885 76.2764 39.6546V40.3835C76.2764 45.2975 80.3116 49.4922 85.5049 49.6564C90.9328 49.8253 95.3863 45.7175 95.3863 40.62V39.6546C95.3863 38.2885 94.213 37.1783 92.7693 37.1783H78.8985H78.8934Z" fill="url(#paint6_linear_152_2)"/>
                    <path d="M130.887 37.1783H117.016C115.573 37.1783 114.399 38.2885 114.399 39.6546V40.62C114.399 45.6113 118.674 49.6612 123.954 49.6612C129.229 49.6612 133.509 45.6161 133.509 40.62V39.6546C133.509 38.2885 132.336 37.1783 130.892 37.1783H130.887Z" fill="url(#paint7_linear_152_2)"/>
                    <path d="M10.1926 55.2268V93.5443C10.1926 93.5443 10.2028 93.5636 10.213 93.5636H123.317C123.317 93.5636 123.337 93.554 123.337 93.5443V55.2268C123.337 55.2268 123.327 55.2075 123.317 55.2075H116.562C116.562 55.2075 116.542 55.2172 116.542 55.2268V88.7462C116.542 88.7462 116.532 88.7655 116.522 88.7655H17.0132C17.0132 88.7655 16.9928 88.7559 16.9928 88.7462V55.2268C16.9928 55.2268 16.9826 55.2075 16.9724 55.2075H10.2181C10.2181 55.2075 10.1977 55.2172 10.1977 55.2268H10.1926Z" fill="url(#paint8_linear_152_2)"/>
                    <path d="M66.7673 96.6675H1.62733C1.62733 96.6675 1.60693 96.6771 1.60693 96.6868C1.57122 97.1454 1.01006 105.694 11.7434 105.694H121.791C132.525 105.694 131.963 97.1454 131.928 96.6868C131.928 96.6771 131.918 96.6675 131.907 96.6675H66.7724H66.7673Z" fill="url(#paint9_linear_152_2)"/>
                    <path d="M69.3997 81.018L70.8332 77.1805C71.5627 75.2255 73.19 73.6857 75.2561 72.9954L79.3168 71.639C81.49 70.9101 81.5206 68.0138 79.3678 67.2415L59.8957 60.2856C58.3398 59.7305 56.8196 61.169 57.4062 62.6413L64.7574 81.0663C65.5736 83.1082 68.6345 83.0744 69.4048 81.018H69.3997Z" fill="#E3D3EC"/>
                    <path d="M27.6344 118.771C27.6344 120.344 28.4149 121.131 29.976 121.131C30.8126 121.131 31.4452 120.808 31.8737 120.166H35.6028C34.8478 122.531 32.9705 123.714 29.9556 123.714C29.0322 123.714 28.1854 123.583 27.4202 123.323C26.655 123.062 25.9969 122.686 25.451 122.203C24.9052 121.72 24.4817 121.141 24.1859 120.47C23.89 119.799 23.7369 119.046 23.7369 118.211C23.7369 117.376 23.8798 116.574 24.1655 115.884C24.4511 115.194 24.8541 114.605 25.3796 114.122C25.905 113.64 26.5427 113.268 27.2875 113.002C28.0323 112.742 28.8741 112.611 29.8127 112.611C30.7514 112.611 31.5676 112.742 32.3073 113.002C33.047 113.263 33.6694 113.644 34.1846 114.142C34.6948 114.639 35.0876 115.247 35.358 115.966C35.6283 116.686 35.761 117.496 35.761 118.394V118.776H27.6446L27.6344 118.771ZM32.1492 116.652C32.0216 116.14 31.7564 115.73 31.3585 115.421C30.9605 115.112 30.4759 114.957 29.9097 114.957C29.3128 114.957 28.8282 115.107 28.4506 115.402C28.0731 115.696 27.8385 116.116 27.7364 116.652H32.1441H32.1492Z" fill="url(#paint10_linear_152_2)"/>
                    <path d="M36.6231 116.41H42.7397V119.456H36.6231V116.41V116.41Z" fill="url(#paint11_linear_152_2)"/>
                    <path d="M47.0861 112.983L49.6827 118.283L52.3253 112.983H56.6309L50.9428 123.323H48.3666L42.7448 112.983H47.0912H47.0861Z" fill="url(#paint12_linear_152_2)"/>
                    <path d="M57.692 109.015C57.692 108.735 57.7481 108.47 57.8603 108.219C57.9725 107.973 58.1307 107.751 58.3296 107.562C58.5286 107.374 58.7582 107.224 59.0234 107.118C59.2836 107.012 59.5642 106.959 59.8652 106.959C60.1661 106.959 60.4416 107.012 60.7069 107.118C60.9722 107.224 61.2017 107.374 61.4007 107.562C61.5996 107.751 61.7578 107.968 61.87 108.219C61.9822 108.47 62.0384 108.735 62.0384 109.015C62.0384 109.295 61.9822 109.561 61.87 109.812C61.7578 110.063 61.5996 110.28 61.4007 110.468C61.2017 110.656 60.9722 110.806 60.7069 110.912C60.4416 111.018 60.1661 111.072 59.8652 111.072C59.5642 111.072 59.2887 111.018 59.0234 110.912C58.7582 110.806 58.5286 110.656 58.3296 110.468C58.1307 110.28 57.9725 110.063 57.8603 109.812C57.7481 109.566 57.692 109.3 57.692 109.015ZM61.8037 112.988V123.328H57.947V112.988H61.8037Z" fill="url(#paint13_linear_152_2)"/>
                    <path d="M68.7518 116.029V123.328H64.8952V116.029H63.6147V112.983H64.8952V109.879H68.7518V112.983H70.9454V116.029H68.7518Z" fill="url(#paint14_linear_152_2)"/>
                    <path d="M72.3942 112.983H76.2509V114.677C76.6641 114.06 77.1692 113.587 77.766 113.258C78.3629 112.93 79.0567 112.766 79.8525 112.766H80.1841C80.3065 112.766 80.4443 112.78 80.5973 112.805V116.29C80.0872 116.048 79.5311 115.928 78.9343 115.928C78.0415 115.928 77.3681 116.179 76.9192 116.686C76.4703 117.192 76.2458 117.926 76.2458 118.891V123.328H72.3891V112.988L72.3942 112.983Z" fill="url(#paint15_linear_152_2)"/>
                    <path d="M82.0614 109.015C82.0614 108.735 82.1175 108.47 82.2298 108.219C82.342 107.973 82.5002 107.751 82.6991 107.562C82.8981 107.374 83.1276 107.224 83.3929 107.118C83.6531 107.012 83.9337 106.959 84.2346 106.959C84.5356 106.959 84.8111 107.012 85.0764 107.118C85.3365 107.224 85.5712 107.374 85.7702 107.562C85.9691 107.751 86.1273 107.968 86.2395 108.219C86.3517 108.47 86.4078 108.735 86.4078 109.015C86.4078 109.295 86.3517 109.561 86.2395 109.812C86.1273 110.063 85.9691 110.28 85.7702 110.468C85.5712 110.656 85.3416 110.806 85.0764 110.912C84.8111 111.018 84.5356 111.072 84.2346 111.072C83.9337 111.072 83.6582 111.018 83.3929 110.912C83.1276 110.806 82.8981 110.656 82.6991 110.468C82.5002 110.28 82.342 110.063 82.2298 109.812C82.1175 109.566 82.0614 109.3 82.0614 109.015ZM86.1732 112.988V123.328H82.3165V112.988H86.1732Z" fill="url(#paint16_linear_152_2)"/>
                    <path d="M88.8157 112.983H92.6724V114.291C93.1978 113.688 93.7284 113.282 94.2691 113.07C94.8099 112.862 95.4425 112.756 96.1669 112.756C96.9321 112.756 97.5902 112.872 98.136 113.109C98.6819 113.345 99.1461 113.678 99.5338 114.108C99.845 114.455 100.059 114.846 100.171 115.276C100.284 115.706 100.34 116.198 100.34 116.748V123.318H96.4831V118.095C96.4831 117.583 96.4423 117.173 96.3658 116.854C96.2893 116.541 96.1516 116.285 95.9526 116.097C95.7843 115.937 95.5904 115.821 95.3761 115.754C95.1619 115.686 94.9374 115.653 94.6925 115.653C94.0396 115.653 93.5396 115.836 93.1927 116.208C92.8458 116.579 92.6724 117.105 92.6724 117.791V123.313H88.8157V112.973V112.983Z" fill="url(#paint17_linear_152_2)"/>
                    <path d="M106.436 118.771C106.436 120.344 107.217 121.131 108.778 121.131C109.614 121.131 110.247 120.808 110.675 120.166H114.404C113.649 122.531 111.767 123.714 108.757 123.714C107.834 123.714 106.987 123.583 106.222 123.323C105.457 123.062 104.798 122.686 104.253 122.203C103.707 121.72 103.283 121.141 102.987 120.47C102.692 119.799 102.539 119.046 102.539 118.211C102.539 117.376 102.681 116.574 102.962 115.884C103.248 115.194 103.651 114.605 104.176 114.122C104.702 113.64 105.339 113.268 106.084 113.002C106.829 112.737 107.671 112.611 108.609 112.611C109.548 112.611 110.364 112.742 111.104 113.002C111.844 113.263 112.466 113.644 112.976 114.142C113.486 114.639 113.879 115.247 114.149 115.966C114.42 116.686 114.552 117.496 114.552 118.394V118.776H106.436V118.771ZM110.951 116.652C110.823 116.14 110.558 115.73 110.165 115.421C109.772 115.112 109.283 114.957 108.716 114.957C108.119 114.957 107.635 115.107 107.257 115.402C106.88 115.696 106.645 116.116 106.543 116.652H110.951V116.652Z" fill="url(#paint18_linear_152_2)"/>
                    <defs>
                    <linearGradient id="paint0_linear_152_2" x1="17.1153" y1="43.9652" x2="17.1153" y2="0.497193" gradientUnits="userSpaceOnUse">
                    <stop stop-color="#FF4F80"/>
                    <stop offset="0.25" stop-color="#FF667E"/>
                    <stop offset="0.99" stop-color="#FFA97B"/>
                    </linearGradient>
                    <linearGradient id="paint1_linear_152_2" x1="49.4429" y1="0" x2="49.4429" y2="0" gradientUnits="userSpaceOnUse">
                    <stop stop-color="#FF4F80"/>
                    <stop offset="0.25" stop-color="#FF667E"/>
                    <stop offset="0.99" stop-color="#FFA97B"/>
                    </linearGradient>
                    <linearGradient id="paint2_linear_152_2" x1="84.0306" y1="0" x2="84.0306" y2="0" gradientUnits="userSpaceOnUse">
                    <stop stop-color="#FF4F80"/>
                    <stop offset="0.25" stop-color="#FF667E"/>
                    <stop offset="0.99" stop-color="#FFA97B"/>
                    </linearGradient>
                    <linearGradient id="paint3_linear_152_2" x1="116.2" y1="0" x2="116.2" y2="0" gradientUnits="userSpaceOnUse">
                    <stop stop-color="#FF4F80"/>
                    <stop offset="0.25" stop-color="#FF667E"/>
                    <stop offset="0.99" stop-color="#FFA97B"/>
                    </linearGradient>
                    <linearGradient id="paint4_linear_152_2" x1="9.54986" y1="43.9652" x2="9.54986" y2="0.497184" gradientUnits="userSpaceOnUse">
                    <stop stop-color="#FF4F80"/>
                    <stop offset="0.25" stop-color="#FF667E"/>
                    <stop offset="0.99" stop-color="#FFA97B"/>
                    </linearGradient>
                    <linearGradient id="paint5_linear_152_2" x1="47.7034" y1="43.9652" x2="47.7034" y2="0.497184" gradientUnits="userSpaceOnUse">
                    <stop stop-color="#FF4F80"/>
                    <stop offset="0.25" stop-color="#FF667E"/>
                    <stop offset="0.99" stop-color="#FFA97B"/>
                    </linearGradient>
                    <linearGradient id="paint6_linear_152_2" x1="85.8262" y1="43.9652" x2="85.8262" y2="0.497184" gradientUnits="userSpaceOnUse">
                    <stop stop-color="#FF4F80"/>
                    <stop offset="0.25" stop-color="#FF667E"/>
                    <stop offset="0.99" stop-color="#FFA97B"/>
                    </linearGradient>
                    <linearGradient id="paint7_linear_152_2" x1="123.954" y1="43.9652" x2="123.954" y2="0.497191" gradientUnits="userSpaceOnUse">
                    <stop stop-color="#FF4F80"/>
                    <stop offset="0.25" stop-color="#FF667E"/>
                    <stop offset="0.99" stop-color="#FFA97B"/>
                    </linearGradient>
                    <linearGradient id="paint8_linear_152_2" x1="66.7674" y1="58.4562" x2="66.7674" y2="100.737" gradientUnits="userSpaceOnUse">
                    <stop stop-color="#4C0071"/>
                    <stop offset="0.42" stop-color="#800099"/>
                    <stop offset="0.99" stop-color="#C300CE"/>
                    </linearGradient>
                    <linearGradient id="paint9_linear_152_2" x1="66.7673" y1="58.4561" x2="66.7673" y2="100.737" gradientUnits="userSpaceOnUse">
                    <stop stop-color="#4C0071"/>
                    <stop offset="0.42" stop-color="#800099"/>
                    <stop offset="0.99" stop-color="#C300CE"/>
                    </linearGradient>
                    <linearGradient id="paint10_linear_152_2" x1="68.2978" y1="50.6025" x2="69.5539" y2="165.547" gradientUnits="userSpaceOnUse">
                    <stop stop-color="#FF4F80"/>
                    <stop offset="0.18" stop-color="#FF667E"/>
                    <stop offset="0.71" stop-color="#FFA97B"/>
                    </linearGradient>
                    <linearGradient id="paint11_linear_152_2" x1="68.2978" y1="50.6026" x2="69.5539" y2="165.547" gradientUnits="userSpaceOnUse">
                    <stop stop-color="#FF4F80"/>
                    <stop offset="0.18" stop-color="#FF667E"/>
                    <stop offset="0.71" stop-color="#FFA97B"/>
                    </linearGradient>
                    <linearGradient id="paint12_linear_152_2" x1="68.2978" y1="50.6025" x2="69.5539" y2="165.547" gradientUnits="userSpaceOnUse">
                    <stop stop-color="#FF4F80"/>
                    <stop offset="0.18" stop-color="#FF667E"/>
                    <stop offset="0.71" stop-color="#FFA97B"/>
                    </linearGradient>
                    <linearGradient id="paint13_linear_152_2" x1="68.2978" y1="50.6025" x2="69.5539" y2="165.547" gradientUnits="userSpaceOnUse">
                    <stop stop-color="#FF4F80"/>
                    <stop offset="0.18" stop-color="#FF667E"/>
                    <stop offset="0.71" stop-color="#FFA97B"/>
                    </linearGradient>
                    <linearGradient id="paint14_linear_152_2" x1="68.2978" y1="50.6025" x2="69.5539" y2="165.547" gradientUnits="userSpaceOnUse">
                    <stop stop-color="#FF4F80"/>
                    <stop offset="0.18" stop-color="#FF667E"/>
                    <stop offset="0.71" stop-color="#FFA97B"/>
                    </linearGradient>
                    <linearGradient id="paint15_linear_152_2" x1="68.2978" y1="50.6025" x2="69.5539" y2="165.547" gradientUnits="userSpaceOnUse">
                    <stop stop-color="#FF4F80"/>
                    <stop offset="0.18" stop-color="#FF667E"/>
                    <stop offset="0.71" stop-color="#FFA97B"/>
                    </linearGradient>
                    <linearGradient id="paint16_linear_152_2" x1="68.2978" y1="50.6025" x2="69.5539" y2="165.547" gradientUnits="userSpaceOnUse">
                    <stop stop-color="#FF4F80"/>
                    <stop offset="0.18" stop-color="#FF667E"/>
                    <stop offset="0.71" stop-color="#FFA97B"/>
                    </linearGradient>
                    <linearGradient id="paint17_linear_152_2" x1="68.2978" y1="50.6026" x2="69.5539" y2="165.547" gradientUnits="userSpaceOnUse">
                    <stop stop-color="#FF4F80"/>
                    <stop offset="0.18" stop-color="#FF667E"/>
                    <stop offset="0.71" stop-color="#FFA97B"/>
                    </linearGradient>
                    <linearGradient id="paint18_linear_152_2" x1="68.2978" y1="50.6025" x2="69.5539" y2="165.547" gradientUnits="userSpaceOnUse">
                    <stop stop-color="#FF4F80"/>
                    <stop offset="0.18" stop-color="#FF667E"/>
                    <stop offset="0.71" stop-color="#FFA97B"/>
                    </linearGradient>
                    </defs>
                </svg>